# xmcd
#
# Track frame offsets:
#	150
#	12600
#	31409
#	41205
#	44668
#	55475
#	66737
#	84967
#	94221
#	112642
#	138179
#	159717
#	165910
#	178402
#	187940
#	197333
#	206839
#	218792
#
# Disc length: 3085 seconds
#
# Revision: 0
# Processed by: cddbd v1.5.2PL0 Copyright (c) Steve Scherf et al.
# Submitted via: EZCDAudioConverter 1.2.3.1
#
DISCID=040c0b12
DTITLE=kim fowley - wildfire 1/2
DYEAR=1900
DGENRE=
TTITLE0=animal man
TTITLE1=wildfire
TTITLE2=hide and seek
TTITLE3=chinese water torture
TTITLE4=nightrider
TTITLE5=bubble gum
TTITLE6=inner space discovery
TTITLE7=barefoot country boy
TTITLE8=up
TTITLE9=caught in the middle
TTITLE10=down
TTITLE11=california hayride
TTITLE12=born to be wild
TTITLE13=i can't stop dancing
TTITLE14=shake a lady
TTITLE15=hello, i love you
TTITLE16=soul limbo
TTITLE17=space odyssey
EXTD=
EXTT0=
EXTT1=
EXTT2=
EXTT3=
EXTT4=
EXTT5=
EXTT6=
EXTT7=
EXTT8=
EXTT9=
EXTT10=
EXTT11=
EXTT12=
EXTT13=
EXTT14=
EXTT15=
EXTT16=
EXTT17=
PLAYORDER=
